<?xml version="1.0" encoding="utf-8"?>
<!-- Generator: Adobe Illustrator 24.2.3, SVG Export Plug-In . SVG Version: 6.00 Build 0)  -->
<svg version="1.1" id="Layer_1" xmlns="http://www.w3.org/2000/svg" xmlns:xlink="http://www.w3.org/1999/xlink" x="0px" y="0px"
	 viewBox="0 0 48 48" style="enable-background:new 0 0 48 48;" xml:space="preserve">
<style type="text/css">
	.st0{fill:#161616;}
	.st1{fill:none;}
	.st2{fill:#FFFFFF;}
	.st3{font-family:'Gilroy-Bold';}
	.st4{font-size:36px;}
	.st5{fill:#CF000F;}
</style>
<g>
	<path class="st0" d="M0,0h48v48H0V0z"/>
	<g>
		<rect x="10.3" y="11.4" class="st1" width="22.2" height="25.2"/>
		<text transform="matrix(1 0 0 1 10.262 36.5779)" class="st2 st3 st4">K</text>
		<path class="st5" d="M35.1,36.6c0.7,0,1.4-0.3,1.9-0.8c0.5-0.5,0.8-1.1,0.8-1.9c0-0.7-0.3-1.4-0.8-1.9c-0.5-0.5-1.1-0.8-1.9-0.8
			c-0.8,0-1.4,0.3-1.9,0.8c-0.5,0.5-0.8,1.1-0.8,1.9c0,0.7,0.3,1.4,0.8,1.9S34.4,36.6,35.1,36.6z"/>
	</g>
</g>
</svg>
